<svg width="28" height="24" viewBox="0 0 24 32" fill="none" xmlns="http://www.w3.org/2000/svg">
<path d="M18.13 16L19.39 14.32C19.83 13.7333 20.39 13.4133 21 13.3333V12L15 4H5C3.89 4 3 5.18667 3 6.66667V25.3333C3 26.0406 3.21071 26.7189 3.58579 27.219C3.96086 27.719 4.46957 28 5 28H11V25.5067L11.13 25.3333H5V6.66667H12V16H18.13ZM14 6L19.5 13.3333H14V6ZM19.13 18.44L21.17 21.16L15.04 29.3333H13V26.6133L19.13 18.44M22.85 18.92L21.87 20.2267L19.83 17.5067L20.81 16.2C21 15.9333 21.33 15.9333 21.53 16.2L22.85 17.96C23.05 18.2267 23.05 18.6667 22.85 18.92V18.92Z" fill="#6610F2"/>
</svg>
