<svg width="28" height="32" viewBox="0 0 28 32" fill="none" xmlns="http://www.w3.org/2000/svg">
<path d="M21.1517 16L22.6217 14.32C23.135 13.7333 23.7883 13.4133 24.5 13.3333V12L17.5 4H5.83333C4.53833 4 3.5 5.18667 3.5 6.66667V25.3333C3.5 26.0406 3.74583 26.7189 4.18342 27.219C4.621 27.719 5.21449 28 5.83333 28H12.8333V25.5067L12.985 25.3333H5.83333V6.66667H14V16H21.1517ZM16.3333 6L22.75 13.3333H16.3333V6ZM22.3183 18.44L24.6983 21.16L17.5467 29.3333H15.1667V26.6133L22.3183 18.44M26.6583 18.92L25.515 20.2267L23.135 17.5067L24.2783 16.2C24.5 15.9333 24.885 15.9333 25.1183 16.2L26.6583 17.96C26.8917 18.2267 26.8917 18.6667 26.6583 18.92V18.92Z" fill="#6610F2"/>
</svg>
