<svg width="28" height="32" viewBox="0 0 28 32" fill="none" xmlns="http://www.w3.org/2000/svg">
<path d="M24.4754 6H18.375V3C18.375 2.73478 18.2828 2.48043 18.1187 2.29289C17.9546 2.10536 17.7321 2 17.5 2H10.5C10.2679 2 10.0454 2.10536 9.88128 2.29289C9.71719 2.48043 9.625 2.73478 9.625 3V6H3.52461L3.5 8.5H5.30469L6.40336 28.125C6.43117 28.6325 6.62708 29.1088 6.95125 29.4572C7.27542 29.8055 7.7035 29.9996 8.14844 30H19.8516C20.2962 29.9999 20.7242 29.8064 21.0486 29.4587C21.3729 29.111 21.5692 28.6353 21.5977 28.1281L22.6953 8.5H24.5L24.4754 6ZM9.625 26L9.13281 10H10.9375L11.4297 26H9.625ZM14.875 26H13.125V10H14.875V26ZM16.1875 6H11.8125V4.25C11.8125 4.1837 11.8355 4.12011 11.8766 4.07322C11.9176 4.02634 11.9732 4 12.0312 4H15.9688C16.0268 4 16.0824 4.02634 16.1234 4.07322C16.1645 4.12011 16.1875 4.1837 16.1875 4.25V6ZM18.375 26H16.5703L17.0625 10H18.8672L18.375 26Z" fill="#6610F2"/>
</svg>
