<svg width="24" height="24" viewBox="0 0 24 28" fill="none" xmlns="http://www.w3.org/2000/svg">
<path d="M23.9719 4H17V1C17 0.734784 16.8946 0.48043 16.7071 0.292893C16.5196 0.105357 16.2652 0 16 0L8 0C7.73478 0 7.48043 0.105357 7.29289 0.292893C7.10536 0.48043 7 0.734784 7 1V4H0.0281248L0 6.5H2.0625L3.31812 26.125C3.34991 26.6325 3.5738 27.1088 3.94428 27.4572C4.31476 27.8055 4.804 27.9996 5.3125 28H18.6875C19.1957 27.9999 19.6848 27.8064 20.0555 27.4587C20.4262 27.111 20.6506 26.6353 20.6831 26.1281L21.9375 6.5H24L23.9719 4ZM7 24L6.4375 8H8.5L9.0625 24H7ZM13 24H11V8H13V24ZM14.5 4H9.5V2.25C9.5 2.1837 9.52634 2.12011 9.57322 2.07322C9.62011 2.02634 9.6837 2 9.75 2H14.25C14.3163 2 14.3799 2.02634 14.4268 2.07322C14.4737 2.12011 14.5 2.1837 14.5 2.25V4ZM17 24H14.9375L15.5 8H17.5625L17 24Z" fill="#6610F2"/>
</svg>
