<svg width="34" height="34" viewBox="0 0 34 34" fill="none" xmlns="http://www.w3.org/2000/svg">
<rect x="0.5" y="0.5" width="33" height="33" fill="white"/>
<path d="M3.4 21.72H4.4V12.72H3.4V9.44H12.58C14.2467 9.44 15.5467 9.78 16.48 10.46C17.4133 11.14 17.88 12.1133 17.88 13.38C17.88 14.1667 17.6933 14.8333 17.32 15.38C16.9467 15.9133 16.5067 16.32 16 16.6C15.5067 16.8667 15.0267 17.0467 14.56 17.14V17.34C15.5067 17.4333 16.36 17.7333 17.12 18.24C17.88 18.7467 18.26 19.6533 18.26 20.96C18.26 22.36 17.7333 23.3867 16.68 24.04C15.6267 24.68 14.26 25 12.58 25H3.4V21.72ZM11.08 16C11.4667 16 11.7533 15.9 11.94 15.7C12.14 15.4867 12.24 15.16 12.24 14.72V14C12.24 13.56 12.14 13.24 11.94 13.04C11.7533 12.8267 11.4667 12.72 11.08 12.72H10V16H11.08ZM11.22 21.72C11.6067 21.72 11.8933 21.62 12.08 21.42C12.28 21.2067 12.38 20.88 12.38 20.44V19.56C12.38 19.12 12.28 18.8 12.08 18.6C11.8933 18.3867 11.6067 18.28 11.22 18.28H10V21.72H11.22ZM25.1078 25.28C23.8278 25.28 22.6145 25.1733 21.4678 24.96C20.3345 24.7333 19.4611 24.48 18.8478 24.2V20.24H23.2478C23.2478 20.6533 23.3411 20.9533 23.5278 21.14C23.7145 21.3267 24.0545 21.42 24.5478 21.42C24.9611 21.42 25.2545 21.36 25.4278 21.24C25.6145 21.1067 25.7078 20.9133 25.7078 20.66C25.7078 20.4467 25.6211 20.2667 25.4478 20.12C25.2745 19.96 24.9745 19.8 24.5478 19.64L22.8278 19.04C21.3478 18.48 20.2811 17.82 19.6278 17.06C18.9878 16.3 18.6678 15.2733 18.6678 13.98C18.6678 12.4067 19.1811 11.2133 20.2078 10.4C21.2478 9.57333 22.9745 9.16 25.3878 9.16C26.5478 9.16 27.6345 9.28 28.6478 9.52C29.6745 9.74667 30.5011 10.0533 31.1278 10.44V14.02H27.1278C27.1278 13.3533 26.7145 13.02 25.8878 13.02C25.4878 13.02 25.2011 13.0733 25.0278 13.18C24.8678 13.2733 24.7878 13.4467 24.7878 13.7C24.7878 13.9267 24.8811 14.1067 25.0678 14.24C25.2678 14.3733 25.5878 14.5133 26.0278 14.66L27.7678 15.26C29.1811 15.74 30.2078 16.3667 30.8478 17.14C31.5011 17.9 31.8278 18.9 31.8278 20.14C31.8278 21.8333 31.2545 23.1133 30.1078 23.98C28.9745 24.8467 27.3078 25.28 25.1078 25.28Z" fill="#6610F2"/>
<rect x="0.5" y="0.5" width="33" height="33" stroke="black"/>
</svg>
